<svg width="50" height="50" viewBox="0 0 50 50" fill="none" xmlns="http://www.w3.org/2000/svg">
<circle cx="25" cy="25" r="24.5" stroke="#EAEAEA"/>
<path d="M24.0549 32.4754L24.0538 32.4744C21.4641 30.126 19.3749 28.2274 17.9244 26.4529C16.4822 24.6884 15.75 23.1384 15.75 21.5C15.75 18.8251 17.8333 16.75 20.5 16.75C22.0133 16.75 23.4781 17.4583 24.4309 18.5685L25 19.2316L25.5691 18.5685C26.5219 17.4583 27.9867 16.75 29.5 16.75C32.1667 16.75 34.25 18.8251 34.25 21.5C34.25 23.1384 33.5178 24.6884 32.0756 26.4529C30.6251 28.2274 28.5359 30.126 25.9462 32.4744L25.9451 32.4754L25 33.3358L24.0549 32.4754Z" stroke="#333333" stroke-width="1.5"/>
</svg>
