<svg width="50" height="50" viewBox="0 0 50 50" fill="none" xmlns="http://www.w3.org/2000/svg">
<circle cx="25" cy="25" r="24.5" stroke="#EAEAEA"/>
<path d="M31.654 30.5951L34.5835 33.5231C34.7201 33.6646 34.7957 33.854 34.794 34.0507C34.7923 34.2473 34.7134 34.4354 34.5744 34.5745C34.4353 34.7135 34.2472 34.7924 34.0506 34.7941C33.8539 34.7958 33.6645 34.7202 33.523 34.5836L30.5935 31.6541C28.6791 33.2943 26.2039 34.1292 23.6872 33.9838C21.1705 33.8383 18.808 32.7237 17.0954 30.8739C15.3828 29.024 14.4532 26.5828 14.5017 24.0624C14.5502 21.5419 15.573 19.1383 17.3556 17.3557C19.1381 15.5732 21.5418 14.5503 24.0622 14.5018C26.5827 14.4533 29.0239 15.3829 30.8737 17.0955C32.7236 18.8081 33.8382 21.1707 33.9836 23.6873C34.1291 26.204 33.2942 28.6793 31.654 30.5936V30.5951ZM24.25 32.5001C26.438 32.5001 28.5365 31.6309 30.0836 30.0838C31.6308 28.5366 32.5 26.4382 32.5 24.2501C32.5 22.0621 31.6308 19.9637 30.0836 18.4165C28.5365 16.8693 26.438 16.0001 24.25 16.0001C22.062 16.0001 19.9635 16.8693 18.4164 18.4165C16.8692 19.9637 16 22.0621 16 24.2501C16 26.4382 16.8692 28.5366 18.4164 30.0838C19.9635 31.6309 22.062 32.5001 24.25 32.5001Z" fill="#333333"/>
</svg>
